<svg xmlns="http://www.w3.org/2000/svg" viewBox="0 0 709.57 790.92"><defs><style>.cls-1{fill:#efefef;}</style></defs><g id="圖層_2" data-name="圖層 2"><path class="cls-1" d="M451,56.92a49,49,0,0,0,4.49,6.16c2,2,4.49,2.88,8.09,3.46l.15.11c3.45,0,7.11-.1,10.71-.41,1.27-.13,13.69-3,15.86-3.87,4.4-4.17,42.52-3.79,45.07-4,4.12-.46,47.73-1.73,52.38-2,6.84-.42,24.33.17,30.8,2.66,12.11,4.7,23.73,4.76,34.38-3.75a44.26,44.26,0,0,0,8.27-8.89c1.48-2.09.67-9,.26-13.92-.43-5.83-3-9.55-3.49-14.76C657.75,14,649.27,6,644.66,7.85,644,7.89,628,10,623.82,10.14c-5.15.26-19.75,2.62-24,3.12-3.79.45-20.31,1.94-25.1,1.88-9.62-.17-45.12-.72-54.69-1.59-2.78-.25-40.9-1.93-43.48-2.13-1.35,0-11.53-1.48-11.53-1.48-.33,0-6.24,1.86-8,4.79A26.14,26.14,0,0,0,454.29,21a24.86,24.86,0,0,0-2.85,11.21C451.65,34,450.58,52.42,451,56.92Z"/><path class="cls-1" d="M455.37,231.65c4.52-2.76,11-3.9,18.75-4.34.55,0,56.09-3.73,60.07-3.62,8.23.2,66.91.11,71.45,0,6.67-.23,33.37.93,39.68,3.62,11.61,5,23,5.54,33.52-2.52,2.58-1.94,7.21-8.06,9.8-12.88,2.17-4,4.37-12.71,5.93-17,2.85-7.69-5.44-19.25-12.82-22.59-7.71-3.46-26.3-.74-26.9-.62-3.62.83-16.73,3.29-22,3.32-3.81,0-32.22,2.85-36.85,2.6-9.35-.51-100.12,1-108.4,1.63-2.73.21-25.24-2.94-30.06-3.24-3.39-.18-17.12-2-22.32-1-5.15,1.22-9.53,7.76-9.88,8.35-1.25,2.24-4.7,6.9-5.84,11.47-1.17,9.46-1.42,17.44-1.42,17.44a61.34,61.34,0,0,0,2,13.93c5,6.69,13.54,8.76,19.16,9.37C441,235.77,452,233.8,455.37,231.65Z"/><path class="cls-1" d="M633.42,90.07c-6.4.77-12.74,2.06-19,3.4-13.46,2.84-23.66,4.46-37.61,3.77-.7,0-40.18-1.17-47.41-1.17-2.45,0-23.4-1.42-27.81-1.58-3.12-.12-19.38-5.06-22.89-3.1a12.18,12.18,0,0,0-4.36,1.1c-4.28,2.08-7.4,7.53-8.18,12.24-.25,1.68-2.31,11.38-2.39,12.19-.94,9.29-3.15,14.59.88,23.37a20,20,0,0,0,5.17,4.21c3.71,1.76,14.68,3,16.24,3.13,4.82.42,10.42-.58,13.12-2.51,5.24-3.74,10.69-4.62,17.85-5.17.48-.06,49.75.28,57.29,0,1.67-.06,42,.61,43.26.55,8.53.61,19.27,2.17,26.7-1.55.75-.25,4.82-7.35,6.06-9.25s1.86-26.35,1.42-28.51a43.47,43.47,0,0,0-3.44-9.35C647.54,91.59,636.45,89.75,633.42,90.07Z"/><path class="cls-1" d="M708.91,743.52c-2.35-3.45-5.12-.34-7.17,1.52-1.83,1.69-14.47-.12-18.7-1.11-22.93-5.45-40.44-24.66-60.39-37.71a7.25,7.25,0,0,1-.77-.6,5.38,5.38,0,0,0,2.34-.57c8.5-3.93,15.79-12.71,18.07-16.45a69.83,69.83,0,0,0,5.75-7.06v1.17a51.49,51.49,0,0,0,3.31,4.92c2.19,2.74,4.69,4.38,7,6.59,3.47,3.31,5,5.27,8.72,8a26.65,26.65,0,0,0,7.37,1.28c7.69.19,10.41-1.76,16.27-8a5,5,0,0,0,1.5-4.73c-.86-2.58-2.3-1.22-3.4-.47-.91.68-6.56-3-8.45-4.43-10-7.91-10.47-13.53-18.71-25.56a6.4,6.4,0,0,1-.7-1.12c4.63-6.14,6.36-12.91,12.17-17.47-5.62-3.43-6.72-5.74-12.35-9-4-2.27-7.11-3.79-11.09-4.41-.44,0-4.18.38-3,.05-2,.57-5.77,2.09-6.84,3.95-.05.44-.05.86-.13,1.28a10.61,10.61,0,0,0-1,1.84c-1.5,7.09-5.27,20.3-7.95,26.29-3.78,8.29-5.4,12.09-12.08,18.34-.53.54-1.08,1.12-1.65,1.67-.38-.63-.84-1.32-1.25-2A93.22,93.22,0,0,1,618,666.62c2.83-12.82,1.21-41.34,4.13-52.92,1.86-7.87,53.4,2.27,59.09-2.34,4.06-6,5.39-18.5,4.48-26.43-.3-3.24-10.08-8.55-12.51-9.43-4.41-1.59-36.65,0-48.23-.32.63-2.74,1.19-5.47,1.61-7.48,1-3.24,1.62-6.48,1-9.72a.54.54,0,0,0-.1-.23c-2.12-2.52-4.25-4.17-7.33-4.79-9.11-.1-18.32-.09-27.45-.14a7,7,0,0,0-4.58,2.33c-1.21,2.39-.94,8.83-.94,9.67,0,3-.14,5.83-.14,8.82-17.77.76-47.59-.44-50.52.66-10.26,3.83-15.26,2.92-16.19,13.27-3,7.63.16,14.45,2,21.34,1.19,4.3,3.86,5.72,7.9,4.72,8.22-2,41.73-.37,49.61-2,3.31-.67,9.44-1.25,8,5.9-2.42,11.95-5,49-8.38,60.81-.1.45-.24,1-.34,1.37-4.92-5.38-7.07-10.88-13.7-19.8-.24-.37-.49-.77-.8-1.22,4.68-6.54,6.22-13.76,12.17-18.71-6-3.34-7.28-5.75-13.34-8.93-4.25-2.21-7.58-3.67-11.76-4.18-.45-.07-4.36.56-3.1.15-2.12.7-5.85,1.86-7,4.41,0,.42,0,.89-.13,1.32-.34.63-.66,1.27-1,2-1.17,7.52-4.63,21.48-7.26,27.8-3.26,8.09-4.89,12.23-10.29,18,.31-5.05.31-10.12.31-15.23h.19a111.29,111.29,0,0,1,1-18.05c0-.24.74-7.51.91-7.55a73.59,73.59,0,0,0,0-15.91.69.69,0,0,0-.11-.38c-1.37-3.75-3.33-5.9-6-7.23-5.49-1.32-15.38-1.14-21.24,1.49-.27.4-1.09,8.77-1.52,10,.05,1.62-.25,10.3-.22,11.67.3,8.65.57,16.29.65,24.92.74.55-.86,8.51-.65,16.27.17,4.67.22,10.67.47,13.53.41,5.09.1,9.11.58,13.06-3.74.43-7.44.82-10,1-1.29-16.66-.38-40.35.1-52.29.27-6.54.1-10.82.7-18.05.15-2.13.15-4.62.31-12.8.61-6.24-.46-15.27-.46-17.89-.16-2.88,1.47-7.64-4.49-9.3-7.09.05-16.19-.5-20,.79-.27.48-2.66,3.54-3.53,4.68A30.55,30.55,0,0,1,458.9,608c0,1.94.47,12.34.47,13.93,0,10.15.76,31.17.89,31.81-.07,4.69-.12,9.43-.07,14.13-.06.75.29,11.34.53,16,0,0,0,0,0,0,0,1.49-1.39,14.5-.27,23.18-2.21,0-5.58-.09-9.18-.13-.82-14.4,0-33.57,0-39-.24-6.07,1.46-25.51,1.26-28.21a65,65,0,0,0-.28-15.33c0-.1-.11-.22-.12-.35-1-3.78-1-5.87-4.84-7.3-7.12.14-13,0-20.13.24-.31.39-2.63,3.11-3.55,4.07-.22,1.42-.95,7.34-.95,9,0,1,.53,5.77.53,7.15.09,8.84.58,17.62.37,26.42.34.28,1.09,23.28,1.39,27.24V691c0,1.37-2,21.32.32,28.75a38.5,38.5,0,0,0-.53,9.15c.21,2.11.79,4.48.79,4.7a20.28,20.28,0,0,0,4.24,4.85,23.66,23.66,0,0,0,6.05,2.87c2.09.32,3.19-1.17,4.51-2.67,2-2.23,8.84-2.41,11.92-2.66.28,0,15.06-.85,16.09-1,1.61-.17,22.22,0,24,0,2.71-.13,5.37-.08,7.85,1.61,4.7,3.28,12.64,3.59,16.88-1.54,1.31-1.62,4.94-9,5.78-11.08,0-.58-.17-5-.31-6.58,0-.75-.68-5.46-.81-6.25-.17-.27-.3-.52-.52-.84.35-.87.55-1.52.55-1.52s.25-1.11.42-2.06c1.44,2.36,3,2.83,5.71,1.51,8.67-4.47,15.93-13.9,18.24-18a83,83,0,0,0,5.7-7.54c0,.4.06.78.06,1.19a59.36,59.36,0,0,0,3.65,5c2.36,2.82,5,4.42,7.61,6.68,3.65,3.14,5.36,5.1,9,7.69-3.8,11.12-8.21,20.57-12.45,24.42-8.94,8.11-16.19,17.56-36,18.21-3.71.14-10.69,2.83-13.52,6.1-5.85,6.92-4.12,13.13-5.21,23.15-.61,5.65.74,8.39,5.53,9.81,14.1,4.23,32.88-2.37,38.78-4.79a201.09,201.09,0,0,0,25.6-12.87c11.46-8.38,14.31-11.92,19.95-19.3,1.34-1.78,2.66-3.84,4-6.05,2,2.61,3.82,5,5,6.48,3,4,21.82,23.22,28.89,30.85,6,6.4,10.11,10.15,20,9.75,8.52-.31,21-9.87,29.29-12.43,16.17-5,13.83-11,24.7-24.6C708.57,749.71,710.65,746.16,708.91,743.52Z"/><path class="cls-1" d="M450.19,338.39a3.8,3.8,0,0,1-2.24-.69l-5.2-3.29h-1v5.14c1.63.34,3.16.56,4.43.71a32.2,32.2,0,0,0,3.61.28c4.3,0,7.51-.86,9.82-2.5A8.57,8.57,0,0,0,463,331a8.36,8.36,0,0,0-2.21-6c-1.45-1.6-4.46-3.38-8.91-5.08-.67-.25-1.22-.57-1.79-.72a6.3,6.3,0,0,1-1.32-.6,3.72,3.72,0,0,1-2.26-3.51,3.5,3.5,0,0,1,1.26-2.51,7.58,7.58,0,0,1,4.38-1.17,7.16,7.16,0,0,1,2.79.72l5,3.36h1.06v-5.22a57.56,57.56,0,0,0-8.4-1,13.77,13.77,0,0,0-7.58,2,6.56,6.56,0,0,0-2.86,5.3,6.43,6.43,0,0,0,2.28,5.18,29.84,29.84,0,0,0,6.53,3.63,20.36,20.36,0,0,1,4.66,2.51,5.89,5.89,0,0,1,1.92,4.51C457.6,336.13,455.14,338.22,450.19,338.39Z"/><path class="cls-1" d="M502,339a5.1,5.1,0,0,1-2.34-1.89,13,13,0,0,1-1.71-3.27l-9.55-24.63h-3.16l-10.6,23.86a26.44,26.44,0,0,1-2.27,4.13,5.3,5.3,0,0,1-2.09,1.8v.92h8V339c-1.49,0-1.79-1.59-.72-4.32l2.59-6.44h10.42l2.61,6.89c1,2.32.55,3.75-1.09,3.87v.92H502Zm-21-12.9,4.61-11.6,4.17,11.6Z"/><path class="cls-1" d="M538.59,339a5.53,5.53,0,0,1-1.87-2.55,10.75,10.75,0,0,1-.44-3.28V316.6a10.7,10.7,0,0,1,.44-3.28,5.4,5.4,0,0,1,1.87-2.56v-.89h-7.51v.89a5.36,5.36,0,0,1,1.8,2.56,10.37,10.37,0,0,1,.45,3.28v9.89l-18.07-16.62h-6v.89a5,5,0,0,1,1.87,2.56,10.76,10.76,0,0,1,.42,3.28v16.58a10.81,10.81,0,0,1-.42,3.28,5.13,5.13,0,0,1-1.87,2.55v.92h7.57V339a5.57,5.57,0,0,1-1.86-2.55,10.3,10.3,0,0,1-.39-3.28V315.86L533.33,333v.18a10.42,10.42,0,0,1-.45,3.28,5.48,5.48,0,0,1-1.8,2.55v.92h7.51Z"/><path class="cls-1" d="M585.88,338.39a3.94,3.94,0,0,1-2.32-.69l-5.15-3.29h-1v5.14c1.57.34,3.12.56,4.42.71a33.23,33.23,0,0,0,3.65.28c4.25,0,7.51-.86,9.79-2.5a8.51,8.51,0,0,0,3.38-7.09,8.34,8.34,0,0,0-2.18-6c-1.5-1.6-4.51-3.38-9-5.08a17.64,17.64,0,0,0-1.71-.72,9.71,9.71,0,0,1-1.37-.6,3.66,3.66,0,0,1-2.24-3.51,3.29,3.29,0,0,1,1.28-2.51,7.52,7.52,0,0,1,4.39-1.17,7.3,7.3,0,0,1,2.79.72l5,3.36h1v-5.22a56.35,56.35,0,0,0-8.29-1,14,14,0,0,0-7.66,2,6.58,6.58,0,0,0-2.81,5.3,6.38,6.38,0,0,0,2.29,5.18,26.83,26.83,0,0,0,6.51,3.63,22.21,22.21,0,0,1,4.69,2.51,5.72,5.72,0,0,1,1.83,4.51C593.17,336.13,590.73,338.22,585.88,338.39Z"/><path class="cls-1" d="M635.51,312.92a5.36,5.36,0,0,1,2-2.16v-.89H627.23v.89a5.77,5.77,0,0,1,2,2.16,8.17,8.17,0,0,1,.57,3.68v5.26H615.14V316.6a8.64,8.64,0,0,1,.63-3.68,5.41,5.41,0,0,1,2-2.16v-.89H607.5v.89a6.22,6.22,0,0,1,2.06,2.16,9.12,9.12,0,0,1,.56,3.68v16.58a9.06,9.06,0,0,1-.56,3.65A5.66,5.66,0,0,1,607.5,339v.92h10.25V339a5,5,0,0,1-2-2.18,8.58,8.58,0,0,1-.63-3.65V324h14.67v9.16a8.1,8.1,0,0,1-.57,3.65,5.29,5.29,0,0,1-2,2.18v.92H637.5V339a4.94,4.94,0,0,1-2-2.18,8.3,8.3,0,0,1-.62-3.65V316.6A8.36,8.36,0,0,1,635.51,312.92Z"/><path class="cls-1" d="M648.38,336.83a5.37,5.37,0,0,1-2,2.18v.92h10.29V339a5.1,5.1,0,0,1-2-2.18,9.09,9.09,0,0,1-.62-3.65V316.6a9.15,9.15,0,0,1,.62-3.68,5.54,5.54,0,0,1,2-2.16v-.89H646.36v.89a5.87,5.87,0,0,1,2,2.16,8.91,8.91,0,0,1,.58,3.68v16.58A8.84,8.84,0,0,1,648.38,336.83Z"/><path class="cls-1" d="M685.68,339v.92h10V339a5,5,0,0,1-2.35-1.89,11,11,0,0,1-1.68-3.27L682,309.22h-3.13l-10.56,23.86a27.55,27.55,0,0,1-2.37,4.13,4.23,4.23,0,0,1-2.11,1.8v.92h8V339c-1.52,0-1.8-1.59-.71-4.32l2.58-6.44h10.38l2.63,6.89C687.72,337.46,687.34,338.89,685.68,339Zm-11.15-12.9,4.7-11.6,4.12,11.6Z"/><path class="cls-1" d="M497.57,399.53h-1l-4.33,3.27a5.14,5.14,0,0,1-2.85,1h-9.86l17.26-27v-.83H474.12v6h1l4-3.16a4.27,4.27,0,0,1,2.57-.67H490l-17.28,27v.88h23.86Z"/><path class="cls-1" d="M533,395.73V382.6a11.78,11.78,0,0,1,.46-3.61,6,6,0,0,1,1.86-2.23v-.83H527v.83a5.54,5.54,0,0,1,1.8,2.23,10.52,10.52,0,0,1,.51,3.61v13.51a11.15,11.15,0,0,1-.88,5.08c-1.28,2.14-3.66,3.22-6.87,3.22q-4.33,0-6.25-2c-1.16-1.34-1.78-3.53-1.78-6.47V382.6a9.23,9.23,0,0,1,.62-3.69,5.47,5.47,0,0,1,2-2.15v-.83H506v.83a6.41,6.41,0,0,1,2,2.15,8.55,8.55,0,0,1,.64,3.69v14.57c0,3.13.89,5.53,2.71,7.12s5,2.25,9.23,2.25c5.42,0,9.11-1.24,11-3.67C532.46,401.48,533,399.11,533,395.73Z"/><path class="cls-1" d="M582.45,404.41a4.31,4.31,0,0,1-2.29-.65L575,400.45H574v5.1c1.61.33,3.12.55,4.46.73a35.36,35.36,0,0,0,3.64.26c4.27,0,7.5-.85,9.75-2.5a9.14,9.14,0,0,0,1.24-13c-1.5-1.64-4.55-3.38-9-5.11-.64-.26-1.22-.56-1.76-.76a7.4,7.4,0,0,1-1.32-.53,3.67,3.67,0,0,1-2.26-3.53,3.29,3.29,0,0,1,1.29-2.46,7,7,0,0,1,7.17-.5l5,3.36h1.07v-5.18a48.13,48.13,0,0,0-8.36-1.06,13.51,13.51,0,0,0-7.59,2,6.4,6.4,0,0,0-2.88,5.27,6.6,6.6,0,0,0,2.34,5.2,24,24,0,0,0,6.49,3.6,20,20,0,0,1,4.65,2.57,5.71,5.71,0,0,1,1.89,4.45C589.81,402.16,587.33,404.24,582.45,404.41Z"/><path class="cls-1" d="M614.39,405a5.39,5.39,0,0,1-2-2.13,8.8,8.8,0,0,1-.6-3.67V390h14.67v9.21a9.19,9.19,0,0,1-.57,3.67,6.56,6.56,0,0,1-2,2.13v.88h10.27V405a5.46,5.46,0,0,1-2-2.13,8.76,8.76,0,0,1-.62-3.67V382.6a8.89,8.89,0,0,1,.62-3.69,5.59,5.59,0,0,1,2-2.15v-.83H623.89v.83a6.74,6.74,0,0,1,2,2.15,9.33,9.33,0,0,1,.57,3.69v5.27H611.8V382.6a8.93,8.93,0,0,1,.6-3.69,5.52,5.52,0,0,1,2-2.15v-.83H604.12v.83a5.8,5.8,0,0,1,2,2.15,8.18,8.18,0,0,1,.6,3.69v16.63a8.06,8.06,0,0,1-.6,3.67,5.66,5.66,0,0,1-2,2.13v.88h10.27Z"/><path class="cls-1" d="M645,402.9a6,6,0,0,1-2,2.13v.88h10.25V405a5.56,5.56,0,0,1-2-2.13,9.84,9.84,0,0,1-.62-3.67V382.6a10,10,0,0,1,.62-3.69,5.69,5.69,0,0,1,2-2.15v-.83H643v.83a6.18,6.18,0,0,1,2,2.15,9.21,9.21,0,0,1,.63,3.69v16.63A9.07,9.07,0,0,1,645,402.9Z"/><path class="cls-1" d="M488.49,444.08a4.49,4.49,0,0,1,2.57.65l3.94,3.16h1.08v-6H469.37v6h1.05l3.91-3.16a4.89,4.89,0,0,1,2.67-.65h3.21v21.17a9.68,9.68,0,0,1-.61,3.7,5.1,5.1,0,0,1-2,2.1v.87h10.26v-.87a5.46,5.46,0,0,1-2-2.1,9.36,9.36,0,0,1-.58-3.7V444.08Z"/><path class="cls-1" d="M505.69,469a5,5,0,0,1-2,2.1v.87h22.68l1-6h-1L522,469.18a5,5,0,0,1-2.84,1h-7.83V455.68h3.8a11.32,11.32,0,0,1,4.1.67,8.31,8.31,0,0,1,2.77,2.09h1v-7.25h-1a7.79,7.79,0,0,1-2.77,2.08,11.4,11.4,0,0,1-4.1.64h-3.8v-10.2h6.4a5.33,5.33,0,0,1,2.62.65l3.92,3.23h1.07v-5.67H503.68v.82a5.76,5.76,0,0,1,2,2.19,8.77,8.77,0,0,1,.66,3.71v16.61A8.72,8.72,0,0,1,505.69,469Z"/><path class="cls-1" d="M571.05,444.93a6.47,6.47,0,0,1,2.09-2.19v-.82H565l-10.68,15.82L544,441.92h-8.34v.82a5.9,5.9,0,0,1,1.87,2.61,10.7,10.7,0,0,1,.42,3.29v16.61a11,11,0,0,1-.42,3.26,5.58,5.58,0,0,1-1.87,2.54v.87h7.54v-.87a6.15,6.15,0,0,1-1.87-2.54,11.1,11.1,0,0,1-.38-3.26V446l11.15,17.12h2l11.35-16.84v18.93a8.68,8.68,0,0,1-.59,3.7,4.87,4.87,0,0,1-2,2.1v.87h10.28v-.87a5.61,5.61,0,0,1-2.09-2.1,10.34,10.34,0,0,1-.51-3.7V448.64A10.4,10.4,0,0,1,571.05,444.93Z"/><path class="cls-1" d="M599.43,454.56c3.87-1.52,5.88-3.79,5.88-6.67a4.88,4.88,0,0,0-2.59-4.45c-1.72-1-4.5-1.52-8.15-1.52H582v.82a6.52,6.52,0,0,1,2,2.19,9.78,9.78,0,0,1,.59,3.71v16.61A9.72,9.72,0,0,1,584,469a5.63,5.63,0,0,1-2,2.1v.87h10.23v-.87a4.78,4.78,0,0,1-1.94-2.1,8.28,8.28,0,0,1-.66-3.7v-9A28.23,28.23,0,0,0,599.43,454.56Zm-9.8-10.85h2.91c2.74,0,4.68.47,5.68,1.22a4.14,4.14,0,0,1,1.36,3.22,5.33,5.33,0,0,1-3.16,4.71,14.11,14.11,0,0,1-6.79,1.62Z"/><path class="cls-1" d="M634.89,465.9h-1l-4.4,3.28a4.64,4.64,0,0,1-2.8,1h-5.36V448.64a9.82,9.82,0,0,1,.57-3.71,6.44,6.44,0,0,1,2-2.19v-.82H613.68v.82a6.1,6.1,0,0,1,2.05,2.19,8.59,8.59,0,0,1,.58,3.71v16.61a8.54,8.54,0,0,1-.58,3.7,5.32,5.32,0,0,1-2.05,2.1v.87h20.26Z"/><path class="cls-1" d="M643.76,469a5.45,5.45,0,0,1-2,2.1v.87h22.75l.95-6h-1.07L660,469.18a4.84,4.84,0,0,1-2.83,1h-7.83V455.68h3.8a11.07,11.07,0,0,1,4.11.67,7.51,7.51,0,0,1,2.75,2.09h1v-7.25h-1a7.08,7.08,0,0,1-2.75,2.08,11.15,11.15,0,0,1-4.11.64h-3.8v-10.2h6.39a5.33,5.33,0,0,1,2.64.65l4,3.23h1v-5.67H641.71v.82a6.28,6.28,0,0,1,2,2.19,10.33,10.33,0,0,1,.62,3.71v16.61A10.27,10.27,0,0,1,643.76,469Z"/><path class="cls-1" d="M372.86,35.65a18,18,0,0,1-3-.38,1.77,1.77,0,0,1-.58-1.52c-.16-2.06,3.42-4.37,0-6.2-.56-.3.58-.89,1.12-1.38a12.15,12.15,0,0,1,1.15-.43c-4.11-1.09-.89-3-1.27-4.45-.75-2.19,1.09-4.64,0-6.74-.65-1.35,1.94-2.88-.59-4.08-1.38-.67-.21-1.89.09-2.89.19-.62,1.29-1.33,1.2-1.88A42.79,42.79,0,0,0,369.6,0L351.24,1.54c-.1,2.9,1.94,5.63-.86,8.75.48.51,1.35,1,1.35,1.51,0,1.8-.41,3.63-.32,5.43,0,3.37.32,6.75.43,10.11.1,1.87.64,3.68-.27,5.59s1.78,3.58-.63,5.47c1.19.36,3.33.66,3.05,1.09-2,2.44,2.83,4.49-1.81,7.1-.52.32.3.7.47,1.07,1.73,0,3,0,4.17-.08v.08c-1.55.55-3,1-4.66,1.54,1.64.16,3,.28,4.7.41v.54l-4.26.42a13.44,13.44,0,0,0,1.16.72c-4,1.09-.41,1.79-1.24,2.78l4.46-.24c0,1.21,0,2.46.12,3.7a4.25,4.25,0,0,0-1.06.79c-.1.06-2.36.19-4,.34,2.62.63,3.49,1.29-1,2.5,2.84-.32,4.15-.49,5.39-.65,1.58,1.51-2,2.78-5.71,4.12,2.58,0,4.59-.07,6.49-.1,0,.51.05,1,.05,1.46-1.91.25-3.78.45-5.53.66,1,.46,3.41,1.18,2.89,1.32-4.53,1.48,4,.26,2.29,1-.32.19,0,.4-.05.58-.38,1.07.4,2.27-1.59,3.18-2.32,1.07,1.55,1.9-3.11,2.81,2.75.91,7.33,1.47,2.75,3.16l-.14-.07c.54.25,1.42.5,1.56.77.53,1.3.26,2.68,1.41,3.86l.1,3.83c-.41.23-.58.66-.1.72l.1,0c.46,16.45.86,33,1.33,49.48a.93.93,0,0,0,.06.3q.18,27.73.36,55.52a2.77,2.77,0,0,0,.9,2.11,1.15,1.15,0,0,0-.14.43Q356.74,369.8,353,543.93a5.17,5.17,0,0,0-.9,1.62l1,.08a1.6,1.6,0,0,0,.15.66c-1.93.1-3.33.29-3.58,1a4,4,0,0,0,.13,2c1.44.18,3,.44,4.93.7-1.75.75-4.22,1.56-4.93,2.31s.12,1.51.34,2.44c3.39-.77-1.57-1.64,4.77-2.07l.28,2.76v.08c1.33.33,2.65.72,4.36,1.17-.85.57-1.79,1.22-3,2-1.09-.16-1.74-.32-2.32-.41-3.5,1.26.3,1.22,2.79,1.36-1.41.29-2.88.65-4.39,1,1.13.22,2.06.35,3.27.57-2.18.35-3.76.53-5.1.78-.23.51,4.3.31.59,1.22A1.67,1.67,0,0,0,350,565c-.22,1.34,0,2.71-.18,4.09,0,.45-.74,1-1.24,1.55,1.29.34,6-.3,5.28.79-.58.72-2.45,1.45-4.08,2.39,2.87-.48,4.82-.89,6.86-1.22a16,16,0,0,1,2.53.28c-1.93.56-3.44,1-4.81,1.34h-5.56l.23,3c2.11-.75,3.18-1.15,4.71-1.7.86,1.25,8.86,0,8.65,1.67-1.69.39-3.3.74-4.85,1.08l-.13,0c-.07.49.58,1.26-.22,1.42-3.78.89-2.73,2-6.27,3-3.39,1-.56,1.79,2.69,2.19a.73.73,0,0,0-.15.33c-1.42.69-3.89,1.38-4,1.92a19.72,19.72,0,0,0,.31,5.66c1.52-.1,2.72-.19,4-.23-2.07.86-4.9,1.6-5.15,2.17-.33,1.17.73,2.25,1.27,3.43l-.12.06H350c2.68.12,5.41.27,8.1.46-2.25.53-4.41,1-6.66,1.6-.44-.16-.92-.3-1.74-.6-2.68,2.76-2,3.46,3.84,4.05-4.37.56-4.37.56-4.93,1.55,2.16-.27,4.5-1.17,6.59-.43-2.16.57-4.94,1.11-6.09,1.77-1.42.7.57,1.17,3.5,1.32-1.83.33-2.93.55-4,.74-.43,1.62-1.25,3.31-1.15,5s1,3.21,1.55,4.77c1.94.13,3.68.2,5.58.32-.54.6-1.1,1.08-1.73,1.69-1.06-.17-1.59-.33-1.71-.33-1,.66-2.09,1.4-3,2-.41.37-.62.72-.29,1,1.33,1.2-.33,2.66.16,4s-1.36,3.12,2.29,4.25c.46.16-.19.58-.54.91s-1.49.74-1.45,1.09a26.34,26.34,0,0,0,1.28,7.36c.25.8,2.61,1.47,4.09,2.19-1.58.37-3.57.85-5.6,1.24l.74,8.54,5.48.54c-4.54.62-6.16,1.29-6.11,2.21a41.06,41.06,0,0,1-.59,4.6,11.34,11.34,0,0,0,.18,2.32,32.84,32.84,0,0,1,7.16-.08c-6.12.9-7,1.18-7,2.34-.16,4-.34,7.94-.42,11.94-.1,1.17-1.07,2.49.26,3.41,1.63,1.14.41,2.32-.26,3.53-.27.38-1.61,1-1,1.2,2.82.74-.5,2,.6,2.89s0,2.18.39,3.25a6,6,0,0,0,2.17,2.26,33.73,33.73,0,0,0,3.91,0c-2.77.46-4.29.74-6.13,1.07a7.08,7.08,0,0,0-.34,2.18c.77,2,3.09,3.88.52,6.22-1,1-.52,1.92-.13,2.87.13.33,2,.43,3.06.67-.36.07-1.12.2-1.12.29-.89,2.15-2.88,4.43-2.06,6.44.5,1.18,1.32,2.29-.37,4.06,4.45-1.14,7.85-2,12.53-1.82-4,.74-8.06,1.5-12,2.24,0,.39.26.72,0,1a2.43,2.43,0,0,0,.18,3.51c.79,1-2.56,2.43.61,3.25-.4.08-1,.22-1.23.28-.32.29-.83.56-.63.71,1.86,1.47,2.29,3,1.4,4.74a1.82,1.82,0,0,0-.15,1.78c1.71,2.49,1.2,5.2,0,7.83-1.65,3.64,1.53,6.81-.21,10.4,0,.12.49.18.79.22l-.12,0a37.26,37.26,0,0,0-.84,3.91c-.28,2,.72,3.88-.37,6-.5,1,1.33,1.63.25,2.74-1.46,1.52-.25,3.06-.18,4.55,0,2.39.18,4.73.15,7.07,0,2.13-.35,4.22-.27,6.34,0,2.29.32,4.52.54,6.76,1.2,0,2.44-.1,3.64-.17a71.29,71.29,0,0,1,16.21-9.45c0-.32.11-.58.11-.89s-.33-.63-.25-.93c.92-3.31,1.89-6.64,2.84-9.95a.83.83,0,0,0,.08-.42c-.41-3.38-.84-6.79-1.1-10.18a20.36,20.36,0,0,1,0-4.13c.26-4.29.74-8.67.82-12.92s-.6-8.25-.75-12.32c-.07-2.11.24-4.23.19-6.24-.1-4.06-.61-8-.61-12-.05-2.51.51-5,.57-7.46s-.34-4.55.09-6.84c.71-3.66,1.23-7.34-.09-10.47l-4.08-.67c1.59-.57,4.17-1.14,4.38-1.64s-2.6-1.1-2-1.67c2.55-2.29,2.69-4.38,1.17-6.37a6.44,6.44,0,0,1-1.4-3.35c0-1.27,1.44-2.7.45-3.84s3.28-2.86-1.28-3.58c-.13,0,.08-.27.38-.4,3.15-1.12,1.95-2.13,1.95-3.17.08-2-.25-3.87-.22-5.78,0-.77,1.14-1.57.62-2.21-1.79-2.17-1-4.53-.32-6.89.12-.5-.65-.93-1-1.44-.21-.2-1.09-.48-.77-.62,4.18-1.83.9-3.2,1.25-4.79.84-3.55,0-7-.06-10.52s0-7,.06-10.52c0-.37.41-.71.41-1a11.05,11.05,0,0,0,.46-3c-.15-4-.4-8-.73-12-.14-2-.73-4-.68-6,.09-2.86.68-5.75.84-8.63.11-2-.28-4-.05-6,.16-1.67,1.35-3.47,1.35-5.22.07-3.16-.58-6.37-.54-9.55.11-6.6.75-13.23.54-19.8-.1-2.69,2-5.58-2.52-7.86-.45-.23-.33-.59.12-.93,2.83-1.93,2.07-3.53,1.1-5.26-.65-1.1-.36-2.4-.21-3.69.21-2.09.9-4.2.87-6.27,0-2.74-1.5-5.36-.49-8.09,1.13-2.95-.22-5.66.49-8.57,1.37-5.3.06-10.4-.05-15.59a38.54,38.54,0,0,1-.07-6.45c.63-4.7,0-9.41,1.09-14.23.73-3.26-.26-6.35-.43-9.51-.19-5.07-.36-10.12-.49-15.22-.05-4.13,0-8.33.15-12.51,0-3.39.51-6.76.34-10.13,0-2.43-1.2-4.81-1.2-7.3-.05-3.59.57-7.34.72-11,.29-4.61.29-9.12.48-13.71.17-3.5.78-7,.69-10.43-.05-3.83-.72-7.6-1-11.39a31.19,31.19,0,0,1,.18-3.75c0-1.3-.18-2.52-.18-3.74s.15-2.38.15-3.57,0-2.4,0-3.66,1.25-2.66-.12-3.7.62-2.29.41-3.4a40.12,40.12,0,0,1-.76-8.53c0-2.91.35-5.87.43-8.78,0-2.21-.31-4.42-.4-6.62-.22-5.27-.34-10.52-.57-15.79-.08-3.78-.21-7.52-.3-11.29-.16-4.43-.3-8.83-.45-13.26-.2-5-.58-10-.58-15,0-10.28.29-20.5.45-30.77.18-7.91.23-15.77.48-23.75.12-4.78.82-9.56.91-14.36,0-4.15-.72-8.28-.79-12.44,0-3.85.63-7.76.7-11.59.12-5.42-.17-10.87,0-16.27.14-6.29.67-12.61.72-18.88.08-5.69-.23-11.33-.48-17,0-1.37-.26-2.7-.32-4.06-.22-4.9-.5-9.79-.59-14.67-.1-2,.22-4.13.22-6.17-.08-2.21-.37-4.42-.32-6.66a13.78,13.78,0,0,1,.75-4.46c.19-.59,1.63-1.24,2.75-2-2.73.06-3.65-.49-3.38-1.5a17.91,17.91,0,0,0,.2-5.87c0-1.69-.42-3.36-.37-5.07.09-2.89.74-5.82.45-8.64-.08-1,1.89-1.6,3.66-2-.83-1.14-1.82-2-2.15-2.92a12.33,12.33,0,0,1-.42-3.92c0-4.57.08-9.21.08-13.83,1.93,0-.41-.65-.2-1.71C369.77,36.81,369,36,372.86,35.65ZM350.05,598.07c.81-.66,1.63-1.33,2.68-2.22,1.65.31,2.67.44,4.63.86C354.48,597.21,352.24,597.63,350.05,598.07ZM348.57,751c1.53-.46,3.16-.94,4.78-1.37C353.35,750.66,353.35,750.66,348.57,751Zm5.61,11c.94-.55,1.91-1.17,2.88-1.72C358.45,760.92,358,761.59,354.18,762Zm-3.8-151c1.55-.55,3.05-1.1,5.09-1.9C355.94,610.33,354.4,610.89,350.38,611.05Zm7.18,88.08c-.3-.63-.46-1.23-.9-2.17C361.07,698.13,361.07,698.25,357.56,699.13Zm4.5-34c-2.27-.35-3.92-.55-6.87-1l8-.36C362.85,664.11,362.52,664.57,362.06,665.12Z"/><path class="cls-1" d="M184.16,738c-2.66-.16-6.62.68-9,.78-2.88.08-5.51,1.06-8.56,1.13-2.16.12-4.71.77-7.11,1-1.21.1-4.88.09-8.31,0,0-6.4,0-11,0-11a30.34,30.34,0,0,1,4.26-.72c5.67-.16,11.7-.65,17.37-.57,1.61,0,5.45-.08,6.27-.18s3.45-.52,4.6-1.57c1-.84,2.37-6.72,2.47-7.06.76-3.45,1.75-19.48,1.38-19.63,0-.17.25-12.48.46-18.3-.09-.05.1-11.19-.29-16.86,0-.25.11-3.66,0-4.11h-.1a26.39,26.39,0,0,0-.23-2.81,38.17,38.17,0,0,0-1.18-5,9.76,9.76,0,0,0-4.73-4.87c-2.89-.58-6.18.57-8.34.57-2.78,0-12.56,1.64-14.77,1.76a91.41,91.41,0,0,1-10,.58c.1-.75.39-1.45.44-2.34.05-.58.25-3.94.55-8,5-.1,13.2-.19,15.54.7,5.8,2.12,8.16,2.27,13.12-.48,1.73-.94,2.21-2.9,3.13-4.17.69-1,1.09-3.88,1.76-5.54,1-2.61.27-5.72-.47-8.17a8.8,8.8,0,0,0-3.69-4.67c-1.64-.82-4.14-.79-7.93-.68-.1,0-4,.73-5.91,1-2.69.45-10.88.51-12.86.71h-.66c.43-1.64.77-3.25.77-3.25a12.76,12.76,0,0,0,.9-7.25c-1.37-2-4.78-2.88-6.46-3.68-7.93,0-15.75,0-23.71,0a49.57,49.57,0,0,0-5,3.48c0,.77-.09,1.48-.09,2.22,0,.49.49,2.58.49,3.16v5.71c-1.09,0-2,0-2.63-.07-1.27,0-7.56-1-9.43-1.2-2.24-.32-7.34-.64-9-.82a31.34,31.34,0,0,0-6.2-.4c-1.92.4-3.84,2.79-4.63,4.15-.14.26-1.85,3.46-2.74,5.33-.67,3.37-.94,7.94-.18,10.45,1.25,3.48,2.27,4.73,3.14,5.62,1.78,1.35,6.36,2.44,7.24,2.52a11.35,11.35,0,0,0,6.81-1.65c2-1.32,5.67-1.94,9.34-2.16.17,0,4.7-.25,8.18-.49-.07,2.75-.09,4.9-.17,5.87l0,0,0,.15-.35,2.51-.51-.1a9.74,9.74,0,0,1-3.79.75c-5.58.05-11.28-.33-16.88-.48-1.65,0-5.46,0-6.26.12s-3.39.36-4.61,1.45c-.94.74-2.38,6.31-2.48,6.59-.82,3.23-.21,17.46.14,17.56,0,.18.38,4.21.38,5.08-.08,5.54.26,8.33,0,13.83a.34.34,0,0,0,.15.18c-.15,5.37-.15,10.76.11,16.16v0a10.89,10.89,0,0,0-1.55,5.49c0,1.37,1.37,8.68,1.55,9.3a10.74,10.74,0,0,0,4.94,5.08c3,.52,6.24-.7,8.43-.75,2.72-.07,8.91-.24,11.12-.46,2-.16,9.33-.81,11.78-.71,0,.83-.31,1.55-.34,2.52,0,.57-.19,4.47-.44,9.45-.88,0-1.8,0-2.64,0-2.77-.2-14.81-.42-14.76-.2-2.62,0-8-.87-10.49-.87-1.8,0-5.87.1-6.66.25a18.16,18.16,0,0,0-2.69,1.24S79,745,78.14,746a36.35,36.35,0,0,0-1.91,3.89,18.32,18.32,0,0,0-1.1,9.14c.3,1.68,3.75,4.65,4.82,5.44,0,0,4,2.26,4.09,2.39a40.9,40.9,0,0,0,7.16,1.19c3,.15,4.48-1,6.41-2.19,2.84-1.76,6.75-2,11.25-2.33.17,0,5.6-.43,9.77-.79-.07,1.56-.1,2.5-.1,2.5s-1.36,12.32-1.36,12.54c-.14,0-1.87,5.47-.67,7.79s4.12,3,6.14,3.73c8,0,15.89-.15,23.84-.23a6.52,6.52,0,0,0,4.71-3.63c.86-2-.08-5.21-.08-5.92,0-1.57,0-9.11,0-17.86.55-.07,1-.07,1.48-.12,3.81-.16,7.6-.26,11.29,1,6.73,2.27,13.2,2.33,19.22-1.72a25,25,0,0,0,4.78-3.85c.55-.81,2.88-2.68,3.29-4.8.3-3.13-.41-6-2.32-10.81C187.48,739,186.11,738.78,184.16,738Zm-71.23-65c0-.1,15.41-1,17.59-1,4.36.13,18.53.06,21,0a27.21,27.21,0,0,1,9.65,1c-.07,2-.12,4.1-.19,6.13-1,.3-3.14.94-3.93,1.09s-15.68.92-16.75.86c-2.18-.29-24.52-1-26.51-.66-.32.05-.59-.15-.93-.35C112.93,676.64,112.86,673.25,112.93,673Zm28.67,33.16c-4.49,0-14.24-.1-18.71.07-1,0-5.4.43-7.89.57-1.42.08-3.08.05-4.82,0,.26-2,.57-4.35.84-6.49a1.91,1.91,0,0,1,.51-.17c.08,0,15.15-1,15.74-1.11.92-.16,11,.26,12.86.12.34,0,17.51-.81,19,.52a11.94,11.94,0,0,0,1.09.86c-.12,3-.22,5.27-.22,5.31C158.11,706,143.73,706.17,141.6,706.14Z"/><path class="cls-1" d="M289.3,637.94c0-3.47.32-7.34-.79-11.13a45.58,45.58,0,0,0-1-5.8c-1.07-4.17-3.71-5.76-4.48-6.85-2.64-2.79-9.66-2.49-11.7-2.2s-6.26.31-9.49.54c-.26,0-9.55-.41-10.55-.33a24.42,24.42,0,0,1-5,.1c-3.44-.13-17.6,0-19.5,0-2.77.13-10,.62-14.51.7-5.51.14-11.37.77-14.23,7-.6,1.2,0,5.13,0,7.16.12,3.57-.08,5.61-.17,8.92a38.85,38.85,0,0,0-.21,4.88c0,2.58.64,16.66.69,18.82.18,13.73-.56,43-.25,46.51.11.63-.51,26.37-.79,29.65-2.42,23.62-6.27,31.8-3.25,42.09.62,2.21,2.73,4,4.47,5,4.15,2.14,16.47,1.1,21.64-.38,1.83-3.72,2.19-5.14,3.39-10.38,0-.34-.15-7.52.1-9.19.3-3.13,1.79-23.33,1.93-27.18,0-1.62.12-3.26.13-4.89,2.61-.19,4.65-.41,4.86-.44,1-.17,11.46.4,13.51.25.33,0,9.11-.47,15-.22,0,2.83-.06,5.72-.15,8.55-.73,7.56-.56,17.2-8.2,21.31-3,1.57-14.08-.29-16.53,5.33-1.07,2.34.57,3.68,0,12.42-.37,4.87,1,7.63,5.81,8.28,10.8,1.37,9.39.32,15,.06,13.94-1.3,17.68-.41,24.19-6.47,3.86-3.66,6.58-7.35,8-18,.91-7,.82-21.16.91-28.65a280.64,280.64,0,0,1,1.41-29.8C290.07,696.79,289,646.39,289.3,637.94Zm-63.11,1.69a75,75,0,0,1,8.78-.36c3.81.29,18.08,1.12,22,1.34H257c.15,5.8.34,12.43.46,19.26-4.93.32-12.9.75-13.67.61-1.29-.13-9.72-.54-16.94-.79-.06-2-.11-3.35-.11-3.55S226.42,644.38,226.19,639.63Zm18,64.37c-1.39-.18-10.08-.57-17.4-.77-.14-5.13-.05-10.48.11-15.85,1.79-.15,3.13-.25,3.25-.3,1-.21,11.46.35,13.47.24.28-.06,8.58-.46,14.43-.24.17,6.84.26,12.64.34,16.27C253.51,703.68,245.06,704.12,244.23,704Z"/><path class="cls-1" d="M287,566.09c-3.95-.78-27.84-.35-32.67,0-7.44,0-48.14,3.06-52.24,2.87-.87-.06-2.78-.08-5.4-.08,1-7.11,1.33-13.75,5.23-20.35-9.83-.63-18.59-6.59-28.39-7-6.89-.19-12.18-.08-18.08,1.7-.64.17-10.19,10.44-11.64,11.39,1.6,5.45,2.93,10,4.37,14-30.46-.14-62.51-.17-63.45-.17-4.33-.1-8.42-.86-12.71-1-3-.2-17.07-2.09-18.85-2.34a14.53,14.53,0,0,0-6.92,1.16c-5,4.31-8.27,7.72-8.65,13.84-.1,3.95,0,11.68,0,12.58,0,3.19,0,6.4.24,9.58h.11c.48,11.69,1.74,82.46,1.74,84.69.48,4-.77,29.16-1.69,45.6-1,9,2.38,19.85-6.89,22.09-3.74.89-12.65.84-15.66,7.47-3.94,8.78-2.66,6.74-3.63,17.11-.5,5.72,1,9.13,6.37,9.95,12.26,2,10.73,1.82,17.07,1.72,15.84-1.23,21.4.63,28.93-6.4,4.57-4.24,4.5-7.34,7.93-19.64.15-.44,3-26.92,3.31-35.84.52-13.67,1.62-23.21,1.56-35.94,0-8.13,1.32-67.95,1.88-78,.06-1.65-.06-6.11-.16-11.37a31.58,31.58,0,0,1,7.88-1.39c.51,0,40.68-1,42.89-1.12,3.58-.23,107.15-1.29,111.2-1.39,5.88-.12,16.11-1.82,21.61.1,10.38,3.55,15,3.33,23.82-2.09a34.24,34.24,0,0,0,8.54-7.67A22.14,22.14,0,0,0,298.11,578C297.72,572.11,293.27,567.32,287,566.09Z"/><path class="cls-1" d="M32.52,59.32a19.89,19.89,0,0,0,14.68,4.9c5.77-.39,11.56-1.17,17.36-1.66,10.09-.85,29.25-5.18,31.06-5.56,1.25-.24,15.18-5.71,16.47-6.34,4.68-2.38,8.58-6.38,12.2-10.26C126.63,37.89,131.77,28,132.1,27c.59-1.89,0-5.62.09-6.1.37-2.26-8.92-5.74-17.66-5.19-13,1-26.11,1.73-38.93-1.74-4.46-1.2-8.5-3-13.39-4.46-2.77-.87-11.89-3.14-12.48-3.14C44.44,5.45,37.5,9.15,34,15.59,32.77,17.83,29,24.93,27.5,27.66c-1.7,3.08-2.84,13.58-2.3,16.17C26,48.6,28.21,55.7,32.52,59.32Z"/><path class="cls-1" d="M45.49,164.68c4.59-2.13,8.44-5.63,12.78-8.42,7-4.58,7.7-4.2,8.53,4.52,0,.66,0,10.58-.14,10.61.06,7.31.18,29.87.58,34.6.67,9.48-2.81,21.46.18,32.31.65,2.32,1,4,2.84,5,7,3.93,19.12,1.74,24.58-4.41a4.71,4.71,0,0,0,1.45-3.9c-1.56-23.74-1.88-47.61-2-71.51,0-3.63.89-5.13,4.55-4.16,8.26,2.31,16.54,4.71,25,6.74,4.61,1.08,12.34-1.64,14.15-10.13.25-1.24-.28-8.27-.77-9-1.41-2.15-7.55-3.4-8.44-3.7-1.68-.61-10.51-3.48-12.19-3.82-7.08-1.58-12.62-6.08-18-11C96,126,95.48,123.45,96.75,120s3.7-4.68,6.77-4.68c3.35.09,6.58.55,9.85.63,3.87.12,7.85.53,11.18-2.47.75-.38,10.18-10.45,10.37-11.31,5.15-4.69,6.29-13.71,1.5-20.24-2.36-3.18-4.82-4.48-7.91-5.79-4.1-3.3-24.36.63-31.51.53-16.72-.11-33.37,1.89-50.06,1-5.07-.22-9.49-3-14.46-3-4.12.43-16,9.06-17.94,12.67-3.79,7.18-3.51,23.35-2.77,26.42,2.26,8.72,4.66,10.34,13,8.9,11-2,22.27-2,33.42-2.84,2.32-.17,5.07.21,4.2,3.66a13.57,13.57,0,0,1-4.77,7.67c-7.26,5.34-15.85,6.41-24.17,8.18-3.27.7-10-1-12.4-1.19-8.82-2.2-14.59-.17-18.3,5.54C2.39,144-1,154.05.28,158.76c1.25,5,4.41,6,7.94,6.91A69.1,69.1,0,0,0,19.73,167C27,167.45,36.17,169.09,45.49,164.68Z"/><path class="cls-1" d="M304.6,182.45a130.52,130.52,0,0,0-16.89.15c-.87.05-1.88.05-2.91.11,0-2.22-.08-4.48-.1-6.7-.14-3.06.1-16.07.39-20.12-.12-3.93,0-12.79.11-13.36C286,124.05,287.53,87,287.53,87c.2-2.85,2.35-19.42,2.54-23.82-.29-.42,1.56-10.87,1.26-20.47v-.06a15.29,15.29,0,0,0-2.8-11.51,28.79,28.79,0,0,0-10.28-7.81c-4.37-3.31-26.09.09-33.72-.06-17.84-.51-35.68,1.1-53.54-.16-5.37-.37-10.07-3.19-15.41-3.34-4.41.39-18.13,8.53-20.18,12a21.85,21.85,0,0,0-2.3,6.52h0c-1.56,7.73-1,17.53-.41,19.83.1.39.21.71.33,1.07,0,1.12.08,2.15.19,3,.14,2.46.43,7.29.43,9.59,0,8.63.86,15.81,1.07,24.49.27,13.36,1.42,26.76,1.68,40.15.08,6.26.32,26.39.32,29.38a48.18,48.18,0,0,1-.92,7.48c-.86,3.12-2.44,6.57-1.59,9.72-11.18.89-22.41,1.55-33.65,2.17-4.88.3-8,2.66-8.63,8.07-.55,5.15-.77,10.35-1.64,15.44-1.25,7.71,2.47,12.83,7.33,17.29a6.86,6.86,0,0,0,5.85,1.49c8.64-2.44,17-5.49,25.59-8.16,2.86-.87,5.83-1.91,8.78-2,10.95-.18,22,.39,33-.09,17-.66,34-2.22,50.91-2.78,7.93-.29,25.21-.57,25.86-.49,3.83.29,18.07-.62,20.84-.08,6.05,1.12,13.13,4,18-2.51,4.46-5.92,8-12.62,11.86-19.08a17.74,17.74,0,0,1-2.08-3.19C314.59,188.53,306.86,182.6,304.6,182.45ZM202.17,65.12c2.47-.08,42-3,45.38-2.89l5,.11a13.68,13.68,0,0,1,.44,3.17c-.06,6.45-.5,12.87-.65,19.29-5.85,0-14,1-17.66.86-12.41-.29-24.85.76-37.26,0-2.55-.18-4.89-1.12-7.33-1.72,0-6.28,0-14.53,0-14.73-.08-1.2-.1-2.4-.19-3.6C194,65.45,198.1,65.32,202.17,65.12ZM189,114.42c5.44-.3,10.84-.37,16.29-.6,1.73-.09,29.23-2,31.59-2s7.1.12,9.59.22c2.17.08,4.36.3,6.45-.47.28,6.19.52,12.43.71,18.63-5.66-.29-14.9,1.07-18.77,1-12.23-.3-24.33.8-36.57-.05-3.49-.25-6.49-2-9.87-2.33C188.58,124,188.75,119.22,189,114.42Zm20.69,18.66c-.25,1.29-.89,1.41-1.69,1.22C208.76,134.45,209.4,134.37,209.65,133.08Zm43.4,42.41c-.64,2.54-1.76,5.3-1.91,7.94-.43,0-.82,0-1.25,0a8.75,8.75,0,0,0-1.93-.33c-20.18-.15-40.3-.4-60.4-.62,0-2.86-.05-5.8-.15-8.73,0-1.69,0-6.82.1-11.48,6.06-.51,12.22-.56,18.4-.84,1.65-.09,28.62-2.21,30.93-2.16s7,.1,9.37.18,5,.44,7.29-.9c-.3,3.41.35,10,.25,10.4A15.54,15.54,0,0,1,253.05,175.49Z"/><path class="cls-1" d="M102.67,330.16c1.43-.28,18-5.4,19.42-6.12,5.13-2.51,9.38-6.59,13.32-10.58,2.48-2.53,7.38-9.17,7.61-10.18a21.15,21.15,0,0,0-.38-12.07c-.74-2.16-6.92-7-16.6-6.17-14.51,1.41-31.36,6.86-45.76,3.88-5-1.05-11.38-1.29-16.45-1.82-3.17-.34-13.7-1.54-14.17-1.54-6-.72-13.65,3.19-17.26,9.7-1.34,2.26-3.69,6-5.29,8.81-1.83,3.13-2.7,13.56-2.13,16.16.18.66.48,1.28.72,1.94a19.07,19.07,0,0,0,.19,3.46c2.55,8.34.74,9,1.32,18,.2,3,.59,8.93.64,11.79,0,10.62,1.14,19.4,1.47,30,.56,16.46,2,32.85,2.4,49.32.25,7.67.73,37.16.56,37.71.49,2.32.09,4.78-.49,7.52-1.32,5.81-4.48,12.61,2.37,17.43,6.26,4.36,10.59,10.93,18.41,10.33,3.24-.23,8.53-5,8.72-5.38a8.91,8.91,0,0,1,1.27-2c3.11-.3,5.86-.58,7.7-.58,13.22.08,33.59-2.56,46.9-1.9,4,.24,7.53,2.33,11.45,2.36,3.26-.42,12.73-6.8,14.25-9.52a5.71,5.71,0,0,0,.67-2.67,2.4,2.4,0,0,0,.11-.74c1-15.55,1.13-39.18-.78-55.15a18.78,18.78,0,0,0-.24-3c-1.61-7-3.49-8.29-9.85-7.26-8.61,1.45-17.22,1.38-25.8,1.9-1.77.1-30.28,2.66-32.71,2.56-2.27,0-6.39,0-9-.07.08-3.17.17-6.37.23-9.53,2.6-.27,4.87-.47,6.39-.47,13.8.1,27.63-1.34,41.52-.71,4.22.21,16.29.17,20.44.17,4.86-.83,6.07-5.56,7.2-8.48,2.44-6.12,2.21-16.35,1.53-18.61a3.79,3.79,0,0,0-.21-.58c.1-4.08.1-8.13.29-11.79.24-7.23.55-16.94-.52-25a31.86,31.86,0,0,0-.35-6.11c-1.71-7.06-3.62-8.4-10-7.23-8.48,1.59-17.13,1.64-25.68,2.31-1.84.15-30.27,3.13-32.7,3.08-2,0-5.45.05-8,0-.1-2.62-.23-5.22-.3-7.73,1.71-.24,3.41-.46,5.17-.62C81.32,333.74,100.7,330.61,102.67,330.16ZM66.43,377.25v-1.52c3.83-.42,7.46-.85,9.6-.83,10.51.08,21.07-1,31.56-1,.43,3.29.94,6.59,1.35,9.9l-4.81.27c-2,.11-32.6,2.91-35.2,2.86H66.18c.08-3.23.15-6.44.25-9.65Zm-1.38,81.14c4.49-.4,9-.94,11.5-.9,10.35.25,20.68-.55,31.07-.45.43,3.36,1,6.7,1.41,10.07-2.68.11-5.28.26-8,.46-1.91.17-31.15,2.88-33.65,2.88-.58,0-1.24,0-2,0A109.68,109.68,0,0,1,65.05,458.39Z"/><path class="cls-1" d="M305.62,289.48c-3-1-7.07-.24-10.09.15,0,0-9.22,1.15-12.44,1.31-3.94.19-18.24,3.3-21.42,3.75-2.89.34-15.59,1.51-19.26,1.4-7.41-.26-13.61,1.38-22.23.26-9.79-1.32-29.14-3.05-30.7-3.05a149.29,149.29,0,0,1-17.8-2,45,45,0,0,0-15.36-1.08c-2.09.68-5,3.58-6.54,8.64-.58,1.66-2.12,7.89-2.09,10.94.17,1.51,0,13.35,0,13.35a63.91,63.91,0,0,0,1.54,13c2,3.37,4.51,6.44,9.54,7.91a53.07,53.07,0,0,0,15.39-.83,48.68,48.68,0,0,0,5.33-2.05,19.32,19.32,0,0,1,13-6.09c.23-.05,4.32-.43,8.78-.88.09,6.79.41,15.94.64,22.23-2.17,0-4.05,0-5.3-.12-1.47-.12-19.87,0-26.65,0-2.36-.15-4.72-.33-7-.58-.3,0-.51,0-.8-.07-1.17-.15-2-.28-2-.28a2.66,2.66,0,0,0-.35.11c-4.53-.21-4.8.87-8.72,2.91-1.33.71-1.81,5.95-1.33,6.84,2.43,4.63.67,4.92,1.17,9.79.16,1.65.75,15.36.92,21.16.1,8.94.1,20.09.39,29,.23,4.18.2,13.21.12,13.61-.37,1.94.34,9.45-.3,10.89-1.26,3.12-1.85,6,4.78,8.69,6.05,2.51,12.93,4.47,19.5,6.71.53-.24,5.06-2.36,6.42-2.85.06-.22,3.81-2.85,4-4a38.23,38.23,0,0,0,.12-8.88c-.15-1.89,0-10,.18-12.56-.18-2.39-.1-7.94-.1-8.31.61-11.48,1.2-23.06,1.79-34.54V394c.05-.66.14-2.4.22-4.38,5.37-.45,11.21-.63,14.43-.74v.31c.57,8,1,31.7.85,31.7.05,9.91.27,33.87.77,40.25.9,12.75-1.05,27.82,2.71,42.42.84,3.16,1.29,5.4,3.6,6.73,8.94,5.34,31.19,4.3,38.13-4a6.81,6.81,0,0,0,1.8-5.23c-2-32-2.37-64.18-2.47-96.31,0-1.31.1-8.43.3-18,3.87.23,7.62.71,9.68,1.52,1.09.45,2.21.84,3.3,1.17,0,4.17,0,8.5.23,12,.54,9.51-.15,16.22.3,25.72.24,4.48.25,14.15.24,14.55-.33,2.07.41,10.1-.18,11.67-1.22,3.31-2.8,7.46,3.95,10.3,6.06,2.54,14.32,2.59,20.86,4.8.55-.27,3.27-1.12,3.34-1.12.63-.84,6.83-5.13,7.06-6.37.5-3.14.5-18.14.65-20.86-.27-2.58-.15-8.42-.15-8.82.42-12.33.89-24.65,1.34-37,0,0,0-13.08.08-16-.3-.22,1.42-7.26.87-13.64-.21-2.74-7.71-9.41-13.34-9.76-5.32-.4-10.64-.57-15.93-1.1a31.76,31.76,0,0,0-7.44.18c-1.29-.12-2.31-.2-2.72-.18-2.14.15-7.17.53-11.25.9.31-8.77.64-16.94.94-22.91.74,0,1.33-.05,1.68-.07,5.17-.3,17.21-.83,22.19,1.4,9.35,4.12,16,4.28,24.11-3,2.51-2.24,3.69-5.72,5-8,1.16-1.8,1.79-7,2.72-10,1.51-4.76,1.9-9.65,2.88-14.51C310,294.64,309.69,290.71,305.62,289.48Z"/></g></svg>